<?xml version="1.0" encoding="UTF-8" standalone="no"?>
<!-- Created with Inkscape (http://www.inkscape.org/) -->

<svg
   xmlns:dc="http://purl.org/dc/elements/1.1/"
   xmlns:cc="http://creativecommons.org/ns#"
   xmlns:rdf="http://www.w3.org/1999/02/22-rdf-syntax-ns#"
   xmlns:svg="http://www.w3.org/2000/svg"
   xmlns="http://www.w3.org/2000/svg"
   xmlns:sodipodi="http://sodipodi.sourceforge.net/DTD/sodipodi-0.dtd"
   xmlns:inkscape="http://www.inkscape.org/namespaces/inkscape"
   width="16"
   height="16"
   viewBox="0 0 16 16.000002"
   id="svg4965"
   version="1.1"
   inkscape:version="0.91 r"
   sodipodi:docname="maximize1.svg">
  <defs
     id="defs4967" />
  <sodipodi:namedview
     id="base"
     pagecolor="#ffffff"
     bordercolor="#666666"
     borderopacity="1.0"
     inkscape:pageopacity="0.0"
     inkscape:pageshadow="2"
     inkscape:zoom="43.783544"
     inkscape:cx="8.8714879"
     inkscape:cy="7.7413052"
     inkscape:document-units="px"
     inkscape:current-layer="layer1"
     showgrid="false"
     units="px"
     inkscape:window-width="1426"
     inkscape:window-height="1027"
     inkscape:window-x="750"
     inkscape:window-y="24"
     inkscape:window-maximized="0" />
  <metadata
     id="metadata4970">
    <rdf:RDF>
      <cc:Work
         rdf:about="">
        <dc:format>image/svg+xml</dc:format>
        <dc:type
           rdf:resource="http://purl.org/dc/dcmitype/StillImage" />
        <dc:title></dc:title>
      </cc:Work>
    </rdf:RDF>
  </metadata>
  <g
     inkscape:label="Layer 1"
     inkscape:groupmode="layer"
     id="layer1"
     transform="translate(0,-1036.3622)">
    <path
       style="display:inline;opacity:1;fill:#bfc1c3;fill-opacity:1;stroke:#bfc1c3;stroke-width:0;stroke-miterlimit:4;stroke-dasharray:none;stroke-opacity:1"
       d="m 8.0228395,1036.3516 a 7.9999958,7.9999958 0 0 0 -8.00000096,8 7.9999958,7.9999958 0 0 0 8.00000096,8 7.9999958,7.9999958 0 0 0 8.0000005,-8 7.9999958,7.9999958 0 0 0 -8.0000005,-8 z m -2.7421902,4.6934 2.7421902,2.7187 2.7421895,-2.7187 0.58789,0.5937 -2.7363294,2.7129 2.7363294,2.7129 -0.58789,0.5937 -2.7421895,-2.7187 -2.7421902,2.7187 -0.5878901,-0.5937 2.7363302,-2.7129 -2.7363302,-2.7129 0.5878901,-0.5937 z"
       id="titlebutton-close-backdrop"
       inkscape:connector-curvature="0"
       inkscape:label="#circle5241" />
  </g>
</svg>
